<?xml version="1.0" encoding="utf-8"?>
<!-- Generator: Adobe Illustrator 23.0.3, SVG Export Plug-In . SVG Version: 6.00 Build 0)  -->
<svg version="1.1" id="Layer_1" xmlns="http://www.w3.org/2000/svg" xmlns:xlink="http://www.w3.org/1999/xlink" x="0px" y="0px"
	 viewBox="0 0 1200 1200" enable-background="new 0 0 1200 1200" xml:space="preserve">
<g>
	<g>
		<circle fill="#FFB800" cx="599.999" cy="600" r="538.714"/>
		<path fill="#003D00" d="M614.252,1149.81c-303.165,7.859-556.206-232.391-564.065-535.558
			C42.329,311.086,282.582,58.049,585.748,50.19s556.206,232.391,564.065,535.557
			C1157.671,888.914,917.418,1141.951,614.252,1149.81z M586.332,72.743C295.601,80.28,65.208,322.938,72.744,613.667
			c7.536,290.731,250.192,521.126,540.924,513.59c290.731-7.536,521.124-250.194,513.588-540.925
			C1119.719,295.602,877.063,65.207,586.332,72.743z"/>
		<circle fill="#FFFFFF" cx="332.834" cy="442.479" r="263.248"/>
		<circle fill="#FFFFFF" cx="859.154" cy="428.836" r="263.248"/>
		<circle fill="#003D00" cx="861.983" cy="366.539" r="133.55"/>
		<circle fill="#003D00" cx="323.878" cy="380.488" r="133.55"/>
		<path fill="#003D00" d="M1133.589,421.722c-3.923-151.324-130.226-271.245-281.549-267.323
			c-124.335,3.223-227.402,89.088-258.062,203.542C557.429,245.229,450.052,164.82,325.72,168.043
			C174.398,171.965,54.477,298.269,58.4,449.593c1.637,63.131,24.627,120.75,61.795,166.238
			c-47.907,68.64-5.426,159.833,73.712,173.813c-6.861,51.333,15.605,130.816,76.972,131.257
			c60.067,0.431,77.811-77.307,70.28-127.097c58.264,2.249,106.818-41.632,108.849-102.062c0.012-0.374-0.046-0.699-0.069-1.049
			c72.313-34.246,127.109-99.079,148.068-177.319c30.401,93.751,109.812,165.083,207.232,184.592
			c18.799,40.459,62.593,63.076,105.892,58.065c-5.621,48.062-9.734,98.32,7.352,144.395c13.349,35.994,47.454,75.744,90.32,65.293
			c37.837-9.225,53.984-51.049,58.428-85.829c6.771-52.993-1.993-106.815-12.828-158.777
			c75.638-23.594,102.435-115.351,54.036-177.469C1125.573,506.602,1134.717,465.208,1133.589,421.722z M331.657,774.165
			c-7.028-1.151-13.29,4.573-11.261,11.86c6.375,22.883,6.442,46.657-1.25,69.291c-7.221,21.248-24.51,48.544-50.226,46.528
			c-24.701-1.937-41.842-26.781-50.248-47.846c-8.982-22.511-10.115-46.52-4.69-69.992c1.491-6.453-3.311-11.175-9.37-11.661
			c-71.502-5.733-106.534-83.379-71.569-141.832c51.748,54.927,125.708,88.508,206.904,86.404
			c31.954-0.828,62.48-7.169,90.763-17.994C425.444,747.82,381.261,782.292,331.657,774.165z M339.364,694.363
			c-138.89,3.6-254.81-106.464-258.411-245.354c-3.6-138.89,106.462-254.812,245.352-258.413
			c138.89-3.6,254.81,106.464,258.411,245.354S478.253,690.762,339.364,694.363z M607.269,435.365
			c-3.6-138.89,106.466-254.812,245.356-258.413c138.89-3.6,254.81,106.464,258.411,245.354s-106.462,254.812-245.352,258.413
			S610.87,574.255,607.269,435.365z M1040.68,705.392c-5.235,1.232-7.268,7.025-6.264,11.73
			c9.141,42.842,16.866,86.272,16.192,130.246c-0.493,32.088-4.606,80.332-37.589,96.86c-41.739,20.915-72.866-32.226-81.474-65.151
			c-11.249-43.026-5.777-88.671-0.541-132.156c0.858-7.119-4.339-13.168-11.859-11.26c-34.656,8.793-70.057-5.837-90.007-33.999
			c12.174,1.331,24.556,1.937,37.131,1.611c100.422-2.603,186.966-59.134,232.711-141.076
			C1135.115,616.259,1105.781,690.071,1040.68,705.392z"/>
		<g>
			<path fill="#003D00" d="M616.764,736.608c39.928-5.477,80.561,3.37,118.582,16.738c25.12,8.832,50.908,20.761,65.672,42.921
				c14.764,22.16,13.11,57.047-9.732,70.733c-22.437,13.443-50.609,1.106-75.41-7.202c-53.683-17.984-114.052-15.141-165.807,7.81
				c-18.101,8.027-35.365,18.47-54.641,22.994c-19.277,4.525-41.909,1.8-55.007-13.05c-11.077-12.559-12.888-31.502-7.521-47.365
				c5.367-15.863,16.959-28.95,30.023-39.426c41.016-32.892,98.802-45.45,150.703-53.845L616.764,736.608z"/>
		</g>
		<path fill="#548ED3" d="M331.657,774.165c-7.028-1.151-13.29,4.573-11.261,11.86c6.375,22.883,6.442,46.657-1.25,69.291
			c-7.221,21.248-24.51,48.544-50.226,46.528c-24.701-1.937-41.842-26.781-50.248-47.846c-8.982-22.511-10.115-46.52-4.69-69.992
			c1.491-6.453-3.311-11.175-9.37-11.661c-71.502-5.733-106.534-83.379-71.569-141.832c51.748,54.927,125.708,88.508,206.904,86.404
			c31.954-0.828,62.48-7.169,90.763-17.994C425.444,747.82,381.261,782.292,331.657,774.165z"/>
		<path fill="#548ED3" d="M1040.68,705.392c-5.235,1.232-7.268,7.025-6.264,11.73c9.141,42.842,16.866,86.272,16.192,130.246
			c-0.493,32.088-4.606,80.332-37.589,96.86c-41.739,20.915-72.866-32.226-81.474-65.151c-11.249-43.026-5.777-88.671-0.541-132.156
			c0.858-7.119-4.339-13.168-11.859-11.26c-34.656,8.793-70.057-5.837-90.007-33.999c12.174,1.331,24.556,1.937,37.131,1.611
			c100.422-2.603,186.966-59.134,232.711-141.076C1135.115,616.259,1105.781,690.071,1040.68,705.392z"/>
	</g>
</g>
</svg>
